<?xml version="1.0" encoding="utf-8"?>
<!-- Generator: Adobe Illustrator 18.0.0, SVG Export Plug-In . SVG Version: 6.00 Build 0)  -->
<!DOCTYPE svg PUBLIC "-//W3C//DTD SVG 1.1//EN" "http://www.w3.org/Graphics/SVG/1.1/DTD/svg11.dtd">
<svg version="1.1" id="Layer_1" xmlns="http://www.w3.org/2000/svg" xmlns:xlink="http://www.w3.org/1999/xlink" x="0px" y="0px"
	 viewBox="0 0 100 100" enable-background="new 0 0 100 100" xml:space="preserve">
<g>
	<g id="meanicons_x5F_14">
		<g>
			<path fill="#0BA6E0" d="M46,54.2c-0.3,1-0.2,1.6-0.5,3.3c0.7,0.1,2.2,0.5,3.6,1.7c1.1-1.5,1.7-1.9,2.2-3
				c3.1-6.6,8.5-27.5,7.9-27.7C58.5,28.3,48.3,47.3,46,54.2z"/>
			<path fill="#0BA6E0" d="M44.6,59.4c-2.4,0.6-3.9,3-3.8,7.1c0.1,4.1-1.8,6.7-2.3,6.8c3.1-0.3,12.5-1.5,10.2-12
				C46.8,59.5,44.6,59.4,44.6,59.4z"/>
		</g>
	</g>
	<path fill="#0BA6E0" d="M69.1,29.6l-6.2,6.2l14.4,14.4L62.9,64.5l6.2,6.2l18.5-20.6L69.1,29.6z M31.4,29.6L12.9,50.1l18.5,20.6
		l6.2-6.2L23.2,50.1l14.4-14.4L31.4,29.6z"/>
</g>
<g>
	<path fill="#0BA6E0" d="M50.2,2c26.5,0,48,21.5,48,48s-21.5,48-48,48s-48-21.5-48-48S23.8,2,50.2,2 M50.2,0c-27.6,0-50,22.4-50,50
		s22.4,50,50,50s50-22.4,50-50S77.9,0,50.2,0L50.2,0z"/>
</g>
</svg>
